# xmcd
#
# Track frame offsets: 
#        150
#        14940
#        27667
#        42891
#        57699
#        71387
#        86377
#        101806
#        113468
#        135317
#        151023
#        166643
#        179892
#        199071
#        227459
#
# Disc length: 3278 seconds
#
# Revision: 0
# Processed by: cddbd v1.5.2PL0 Copyright (c) Steve Scherf et al.
# Submitted via: ExactAudioCopy v1.3
#
DISCID=c20ccc0f
DTITLE=Big Bill Broonzy - Seven Classic Albums Disc 1
DYEAR=2015
DGENRE=Blues, Folk
TTITLE0=John Henry
TTITLE1=Crawdad
TTITLE2=Bill Bailey
TTITLE3=Make My Get Away
TTITLE4=Blue Tail Fly
TTITLE5=Bessie Smith (Backwater Blues)
TTITLE6=Leroy Carr (In The Evening)
TTITLE7=Richard Jones (Trouble In Mind)
TTITLE8=Big Bill's Guitar Blues
TTITLE9=Somebody's Got To Go
TTITLE10=Water Coast
TTITLE11=Take This Ole' Hammer
TTITLE12=Diggin' My Potatoes
TTITLE13=Rock Me Baby
TTITLE14=Careless Love
EXTD=
EXTT0=
EXTT1=
EXTT2=
EXTT3=
EXTT4=
EXTT5=
EXTT6=
EXTT7=
EXTT8=
EXTT9=
EXTT10=
EXTT11=
EXTT12=
EXTT13=
EXTT14=
PLAYORDER=
